<?xml version="1.0" standalone="no"?>
<!DOCTYPE svg PUBLIC "-//W3C//DTD SVG 20010904//EN"
 "http://www.w3.org/TR/2001/REC-SVG-20010904/DTD/svg10.dtd">
<svg version="1.0" xmlns="http://www.w3.org/2000/svg"
 width="672.000000pt" height="436.000000pt" viewBox="0 0 672.000000 436.000000"
 preserveAspectRatio="xMidYMid meet">

<g transform="translate(0.000000,436.000000) scale(0.100000,-0.100000)"
fill="#000000" stroke="none">
<path d="M3066 3659 c-376 -41 -707 -264 -894 -602 -35 -63 -50 -101 -45 -113
4 -12 3 -15 -5 -10 -8 5 -10 1 -5 -10 5 -13 9 -11 23 15 9 18 19 29 22 25 4
-3 4 3 1 15 -4 14 -1 21 9 21 8 0 27 23 42 51 119 218 360 416 607 499 96 33
250 60 337 60 551 0 1009 -390 1097 -933 48 -296 -20 -597 -193 -847 -24 -36
-35 -56 -23 -46 35 32 24 2 -23 -61 -49 -64 -119 -128 -220 -198 -36 -26 -66
-49 -66 -51 0 -10 123 74 187 128 63 53 173 174 182 201 2 7 9 19 16 27 7 8
36 58 63 110 198 373 185 786 -35 1159 -25 42 -60 95 -79 118 -42 51 -45 68
-4 22 68 -76 190 -285 190 -326 0 -7 5 -12 11 -10 6 1 14 -4 17 -12 2 -8 0
-11 -5 -8 -6 4 -8 -4 -5 -19 3 -18 7 -22 12 -13 6 8 12 -2 19 -29 6 -23 15
-59 21 -80 31 -121 29 -332 -5 -516 -9 -44 -13 -81 -11 -83 2 -2 16 47 31 109
26 106 27 122 22 268 -4 119 -12 179 -32 260 -56 225 -191 440 -375 598 -70
59 -261 182 -284 182 -6 0 25 -21 69 -47 44 -25 105 -65 135 -89 62 -48 149
-134 135 -134 -6 0 -32 23 -60 51 -67 67 -224 171 -325 215 -78 34 -249 83
-294 85 -21 0 -21 1 -1 9 15 7 8 9 -30 10 -27 0 -72 2 -100 4 -27 2 -86 0
-129 -5z"/>
<path d="M3600 3580 c8 -5 20 -10 25 -10 6 0 3 5 -5 10 -8 5 -19 10 -25 10 -5
0 -3 -5 5 -10z"/>
<path d="M3519 3276 c-69 -18 -136 -62 -211 -138 -191 -194 -325 -488 -288
-630 12 -45 45 -88 67 -88 18 0 16 19 -2 27 -24 9 -45 57 -45 103 0 121 141
397 271 531 111 115 241 189 303 173 100 -25 76 -265 -64 -626 l-40 -105 -58
-13 c-79 -17 -211 -65 -309 -110 -197 -92 -359 -233 -429 -375 -35 -71 -39
-87 -39 -154 0 -65 4 -83 28 -123 61 -104 188 -133 299 -70 70 41 176 152 251
265 67 102 188 333 243 464 37 89 39 92 79 102 43 11 84 36 74 45 -3 3 -24 -2
-47 -11 -23 -9 -45 -14 -48 -11 -3 3 15 63 41 133 126 349 145 579 49 615 -33
13 -68 12 -125 -4z m-29 -794 c0 -4 -47 -102 -104 -218 -197 -398 -362 -594
-500 -594 -68 0 -124 44 -151 119 -85 243 203 545 645 675 93 27 110 30 110
18z"/>
<path d="M2081 2794 c0 -11 3 -14 6 -6 3 7 2 16 -1 19 -3 4 -6 -2 -5 -13z"/>
<path d="M4291 2784 c0 -11 3 -14 6 -6 3 7 2 16 -1 19 -3 4 -6 -2 -5 -13z"/>
<path d="M2071 2754 c0 -11 3 -14 6 -6 3 7 2 16 -1 19 -3 4 -6 -2 -5 -13z"/>
<path d="M4302 2740 c0 -14 2 -19 5 -12 2 6 2 18 0 25 -3 6 -5 1 -5 -13z"/>
<path d="M2061 2714 c0 -11 3 -14 6 -6 3 7 2 16 -1 19 -3 4 -6 -2 -5 -13z"/>
<path d="M2052 2660 c0 -14 2 -19 5 -12 2 6 2 18 0 25 -3 6 -5 1 -5 -13z"/>
<path d="M2043 2585 c0 -22 2 -30 4 -17 2 12 2 30 0 40 -3 9 -5 -1 -4 -23z"/>
<path d="M4252 2018 c-15 -37 -19 -55 -11 -63 7 -7 8 -4 3 9 -6 15 -4 17 6 11
9 -5 11 -4 6 3 -4 7 -3 12 3 12 6 0 7 7 4 17 -5 12 -3 14 8 8 8 -4 11 -5 7 0
-4 4 -4 13 2 19 5 7 5 17 1 24 -4 7 -15 -8 -29 -40z"/>
<path d="M4205 1919 c-3 -4 2 -6 10 -5 21 3 28 13 10 13 -9 0 -18 -4 -20 -8z"/>
<path d="M4024 1668 l-19 -23 23 19 c12 11 22 21 22 23 0 8 -8 2 -26 -19z"/>
<path d="M4015 1628 l-40 -43 43 40 c39 36 47 45 39 45 -2 0 -21 -19 -42 -42z"/>
<path d="M3969 1613 c-13 -16 -12 -17 4 -4 16 13 21 21 13 21 -2 0 -10 -8 -17
-17z"/>
<path d="M3919 1543 c-13 -16 -12 -17 4 -4 9 7 17 15 17 17 0 8 -8 3 -21 -13z"/>
<path d="M3705 1428 c-11 -6 -23 -15 -26 -20 -3 -6 -9 -9 -13 -9 -19 3 -27 0
-22 -7 7 -12 -61 -35 -75 -26 -8 5 -9 3 -4 -6 6 -10 3 -12 -13 -8 -14 4 -20 2
-15 -5 4 -6 -2 -8 -15 -5 -12 4 -20 2 -17 -2 3 -5 0 -10 -7 -13 -7 -2 -2 -2
12 0 39 7 179 63 194 78 7 8 16 12 18 10 3 -3 5 2 5 10 0 8 -1 15 -1 15 -1 0
-10 -6 -21 -12z"/>
<path d="M3448 1313 c7 -3 16 -2 19 1 4 3 -2 6 -13 5 -11 0 -14 -3 -6 -6z"/>
<path d="M3355 1300 c-27 -7 -27 -8 -5 -8 14 0 39 4 55 8 27 7 27 8 5 8 -14 0
-38 -4 -55 -8z"/>
<path d="M3263 1283 c9 -2 25 -2 35 0 9 3 1 5 -18 5 -19 0 -27 -2 -17 -5z"/>
<path d="M1810 981 c0 -75 -4 -103 -15 -115 -17 -17 -20 -66 -4 -66 6 0 24 13
40 29 29 29 29 31 29 140 l0 111 -25 0 c-25 0 -25 0 -25 -99z"/>
<path d="M2211 1062 c-51 -25 -73 -61 -74 -120 -1 -70 33 -116 101 -137 36
-10 28 31 -13 69 -26 25 -35 42 -35 66 0 24 9 41 35 66 19 18 35 42 35 53 0
25 -5 26 -49 3z"/>
<path d="M2290 1060 c0 -12 16 -36 35 -54 26 -25 35 -42 35 -66 0 -24 -9 -41
-35 -66 -41 -38 -49 -79 -12 -69 66 20 99 65 99 135 0 70 -33 115 -99 135 -19
5 -23 2 -23 -15z"/>
<path d="M2692 1053 l3 -28 100 0 100 0 3 28 3 27 -106 0 -106 0 3 -27z"/>
<path d="M3150 1068 c0 -7 23 -70 52 -140 48 -119 53 -128 78 -128 25 0 30 9
78 130 29 72 52 135 52 141 0 6 -12 9 -27 7 -23 -2 -31 -13 -51 -63 -13 -33
-31 -76 -39 -95 l-14 -35 -25 59 c-13 33 -24 63 -24 67 0 4 15 9 33 11 27 2
32 7 32 28 0 24 -3 25 -72 28 -55 2 -73 0 -73 -10z"/>
<path d="M3724 1003 c-43 -93 -48 -128 -19 -128 15 0 28 17 50 63 l30 62 25
-62 c14 -35 27 -66 28 -70 2 -5 -35 -8 -82 -8 -76 0 -86 -2 -100 -22 -8 -12
-13 -25 -10 -30 7 -11 261 -10 268 1 3 5 -19 67 -49 137 -48 114 -57 129 -80
132 -23 3 -29 -4 -61 -75z"/>
<path d="M4187 1073 c-4 -3 -7 -14 -7 -24 0 -25 28 -31 125 -27 79 3 80 3 83
31 l3 27 -99 0 c-54 0 -102 -3 -105 -7z"/>
<path d="M4670 1068 c0 -7 43 -71 96 -141 77 -105 99 -128 117 -125 21 3 22 7
25 141 l3 138 -28 -3 c-28 -3 -28 -4 -33 -86 l-5 -83 -62 85 c-50 69 -68 86
-88 86 -14 0 -25 -6 -25 -12z"/>
<path d="M2694 955 c-14 -37 2 -45 89 -45 88 0 114 11 101 44 -9 23 -182 24
-190 1z"/>
<path d="M4184 955 c-3 -8 -3 -22 0 -30 5 -13 22 -15 98 -13 92 3 93 3 93 28
0 25 -1 25 -93 28 -76 2 -93 0 -98 -13z"/>
<path d="M1675 890 c-10 -16 4 -48 32 -70 32 -25 40 -25 48 0 13 40 -60 103
-80 70z"/>
<path d="M4670 850 c0 -47 2 -50 25 -50 23 0 25 3 25 50 0 47 -2 50 -25 50
-23 0 -25 -3 -25 -50z"/>
<path d="M2694 845 c-3 -8 -3 -22 0 -30 5 -13 23 -15 103 -13 97 3 98 3 98 28
0 25 -1 25 -98 28 -80 2 -98 0 -103 -13z"/>
<path d="M4184 845 c-15 -38 1 -45 106 -45 l101 0 -3 28 -3 27 -98 3 c-80 2
-98 0 -103 -13z"/>
</g>
</svg>
