<?xml version="1.0" standalone="no"?>
<!DOCTYPE svg PUBLIC "-//W3C//DTD SVG 20010904//EN"
 "http://www.w3.org/TR/2001/REC-SVG-20010904/DTD/svg10.dtd">
<svg version="1.0" xmlns="http://www.w3.org/2000/svg"
 width="384.000000pt" height="131.000000pt" viewBox="0 0 384.000000 131.000000"
 preserveAspectRatio="xMidYMid meet">

<g transform="translate(0.000000,131.000000) scale(0.100000,-0.100000)"
fill="#000000" stroke="none">
<path d="M0 655 l0 -655 1920 0 1920 0 0 655 0 655 -280 0 -280 0 0 -36 c0
-20 -9 -49 -21 -65 -11 -16 -20 -39 -21 -51 0 -30 -19 -81 -32 -90 -20 -14
-84 -9 -88 7 -2 10 -15 3 -45 -26 -23 -22 -45 -40 -48 -39 -3 0 -6 -3 -7 -7
-5 -21 -42 -48 -85 -62 -27 -9 -47 -22 -46 -28 2 -7 -3 -10 -11 -7 -7 3 -29
-13 -49 -36 -20 -22 -39 -40 -41 -40 -4 0 -16 -10 -104 -90 -18 -17 -38 -30
-45 -30 -7 0 -19 -9 -27 -20 -8 -11 -22 -20 -31 -20 -9 0 -19 -7 -23 -15 -3
-8 -13 -15 -22 -15 -10 0 -14 -6 -11 -14 7 -16 -19 -56 -36 -56 -7 0 -28 -8
-47 -18 -19 -11 -40 -17 -47 -15 -6 2 -28 -3 -48 -11 -47 -20 -224 -22 -244
-4 -11 11 -14 11 -18 1 -3 -8 -22 -13 -44 -13 -32 0 -39 -3 -39 -20 0 -15 -7
-20 -24 -20 -14 0 -27 -4 -30 -9 -3 -4 -29 -6 -57 -3 -47 4 -52 3 -47 -14 5
-18 -5 -19 -279 -16 -243 2 -283 5 -283 18 0 8 -12 19 -26 24 -14 6 -40 21
-58 35 -35 27 -56 32 -56 14 0 -9 -24 -10 -86 -5 -61 5 -90 4 -100 -5 -8 -6
-17 -9 -21 -5 -3 3 -1 6 5 6 14 0 16 26 3 34 -5 3 -16 -5 -25 -19 -15 -23 -15
-26 1 -43 20 -20 29 -82 12 -82 -6 0 -8 -7 -5 -16 4 -10 2 -13 -6 -8 -8 5 -9
2 -5 -11 6 -14 3 -16 -13 -12 -19 5 -24 -3 -23 -40 1 -16 -13 -17 -23 -2 -4 8
-9 7 -14 -2 -7 -10 -11 -9 -22 2 -17 18 -166 220 -205 279 -55 83 -103 160
-103 165 0 7 -39 63 -57 83 -7 7 -13 19 -13 27 0 7 -7 16 -16 19 -10 4 -13 13
-9 25 3 12 0 21 -10 25 -23 8 -19 35 5 29 30 -8 45 -30 31 -47 -8 -10 -9 -16
-1 -21 5 -3 10 -1 10 4 0 6 4 11 9 11 4 0 6 -12 3 -26 -3 -18 -1 -25 9 -24 27
4 40 0 34 -10 -4 -6 7 -23 24 -39 18 -17 32 -24 35 -17 3 6 13 1 26 -13 15
-17 24 -21 31 -14 8 8 6 17 -7 31 -71 76 -74 82 -49 82 8 0 15 7 15 16 0 8 -5
12 -10 9 -6 -3 -10 2 -10 12 0 94 -49 313 -70 313 -4 0 -13 18 -20 40 l-13 40
-229 0 -228 0 0 -655z m400 335 c0 -5 -2 -10 -4 -10 -3 0 -8 5 -11 10 -3 6 -1
10 4 10 6 0 11 -4 11 -10z m118 -291 c-2 -6 -8 -10 -13 -10 -5 0 -11 4 -13 10
-2 6 4 11 13 11 9 0 15 -5 13 -11z"/>
<path d="M640 763 c0 -7 33 -32 43 -33 16 0 5 16 -18 27 -14 6 -25 9 -25 6z"/>
<path d="M760 720 c0 -5 5 -10 10 -10 6 0 10 5 10 10 0 6 -4 10 -10 10 -5 0
-10 -4 -10 -10z"/>
<path d="M747 683 c-3 -5 10 -21 29 -36 19 -16 34 -25 34 -21 0 4 -8 13 -17
20 -10 7 -18 18 -18 25 0 15 -21 24 -28 12z"/>
<path d="M830 640 c0 -5 5 -10 10 -10 6 0 10 5 10 10 0 6 -4 10 -10 10 -5 0
-10 -4 -10 -10z"/>
<path d="M869 591 c9 -6 11 -16 6 -32 -7 -22 -7 -22 10 -6 14 14 15 20 5 32
-7 8 -18 15 -24 15 -6 0 -5 -4 3 -9z"/>
</g>
</svg>
